<?xml version="1.0" encoding="utf-8"?>
<!DOCTYPE svg PUBLIC "-//W3C//DTD SVG 20010904//EN" "http://www.w3.org/TR/2001/REC-SVG-20010904/DTD/svg10.dtd">
<svg version="1.0" xmlns="http://www.w3.org/2000/svg" width="47pt" height="47pt" viewBox="0 0 47 47" style="" preserveAspectRatio="xMidYMid meet">
<g fill="#3E8FBAFF">
<path d="M 20.035 10.934 C 18.455 13.886 18.797 17.506 20.829 19.345 C 24.053 22.263 24.858 21.353 24.674 15.003 C 24.531 10.073 24.195 9.005 22.785 9.003 C 21.842 9.001 20.605 9.870 20.035 10.934 "/></g>
<g fill="#00133AFF">
<path d="M 12.000 28.500 C 12.000 32.961 12.029 33.000 15.441 33.000 C 19.620 33.000 20.093 32.350 19.332 27.656 C 18.740 24.013 17.097 22.423 17.361 25.750 C 17.451 26.880 16.791 27.500 15.500 27.500 C 14.209 27.500 13.549 26.880 13.639 25.750 C 13.715 24.788 13.378 24.000 12.889 24.000 C 12.400 24.000 12.000 26.025 12.000 28.500 "/></g>
<g fill="#F66528FF">
<path d="M 25.945 10.566 C 24.897 11.829 24.886 12.795 25.886 15.560 C 26.567 17.446 26.846 19.441 26.504 19.994 C 26.162 20.547 26.782 21.000 27.882 21.000 C 28.982 21.000 30.165 20.543 30.510 19.984 C 30.856 19.425 31.557 19.226 32.069 19.543 C 32.581 19.859 33.000 19.678 33.000 19.141 C 33.000 18.603 33.273 17.452 33.607 16.582 C 34.398 14.522 32.185 14.522 29.908 16.583 C 28.304 18.034 28.074 18.006 27.131 16.245 C 26.107 14.331 26.636 10.000 27.894 10.000 C 28.258 10.000 29.555 10.701 30.777 11.557 C 32.670 12.882 33.000 12.898 33.000 11.664 C 33.000 8.893 27.982 8.112 25.945 10.566 "/></g>
<g fill="#00133AFF">
<path d="M 15.407 9.765 C 14.806 10.169 14.031 11.957 13.685 13.737 C 13.190 16.281 13.517 17.404 15.216 18.987 C 18.089 21.663 19.152 21.531 18.051 18.633 C 17.551 17.319 17.515 14.650 17.970 12.633 C 18.792 8.986 17.957 8.051 15.407 9.765 "/></g>
<g fill="#00133AFF">
<path d="M 29.035 27.418 C 26.694 32.880 26.519 33.881 28.200 32.200 C 29.762 30.638 33.257 30.664 34.877 32.250 C 36.246 33.591 33.365 25.248 31.885 23.585 C 31.432 23.077 30.166 24.780 29.035 27.418 M 32.985 28.750 C 32.993 29.438 32.325 30.000 31.500 30.000 C 29.991 30.000 29.412 26.922 30.682 25.652 C 31.463 24.871 32.962 26.888 32.985 28.750 "/></g>
<g fill="#AAB3BAFF">
<path d="M 21.000 39.000 C 21.000 39.578 24.167 40.000 28.500 40.000 C 32.833 40.000 36.000 39.578 36.000 39.000 C 36.000 38.422 32.833 38.000 28.500 38.000 C 24.167 38.000 21.000 38.422 21.000 39.000 "/></g>
<g fill="#AAB3BAFF">
<path d="M 11.000 36.000 C 11.000 36.578 14.167 37.000 18.500 37.000 C 22.833 37.000 26.000 36.578 26.000 36.000 C 26.000 35.422 22.833 35.000 18.500 35.000 C 14.167 35.000 11.000 35.422 11.000 36.000 "/></g>
<g fill="#AAB3BAFF">
<path d="M 28.000 36.000 C 28.000 36.550 29.800 37.000 32.000 37.000 C 34.200 37.000 36.000 36.550 36.000 36.000 C 36.000 35.450 34.200 35.000 32.000 35.000 C 29.800 35.000 28.000 35.450 28.000 36.000 "/></g>
<g fill="#AAB3BAFF">
<path d="M 11.405 28.000 L 11.500 33.500 14.750 33.444 C 17.580 33.396 17.619 33.364 15.052 33.194 C 12.244 33.009 12.086 32.752 11.707 27.750 L 11.309 22.500 11.405 28.000 "/></g>
<g fill="#AAB3BAFF">
<path d="M 14.000 39.000 C 14.000 39.550 15.350 40.000 17.000 40.000 C 18.650 40.000 20.000 39.550 20.000 39.000 C 20.000 38.450 18.650 38.000 17.000 38.000 C 15.350 38.000 14.000 38.450 14.000 39.000 "/></g>
<g fill="#213E5AFF">
<path d="M 12.500 23.765 C 13.050 24.169 13.545 25.063 13.600 25.750 C 13.655 26.438 13.768 26.550 13.850 26.000 C 13.933 25.450 14.675 25.000 15.500 25.000 C 16.325 25.000 17.000 24.550 17.000 24.000 C 17.000 23.450 15.763 23.007 14.250 23.015 C 12.738 23.024 11.950 23.361 12.500 23.765 "/></g>
<g fill="#F57F4CFF">
<path d="M 26.080 13.850 C 25.222 15.453 25.451 15.675 27.795 15.507 C 29.283 15.400 29.713 15.243 28.750 15.157 C 27.788 15.070 27.000 14.502 27.000 13.893 C 27.000 13.284 27.698 13.054 28.552 13.382 C 29.442 13.723 29.843 13.555 29.493 12.989 C 28.550 11.464 27.171 11.812 26.080 13.850 "/></g>
<g fill="#AAB3BAFF">
<path d="M 17.711 8.649 C 18.450 8.949 18.742 10.379 18.460 12.320 L 17.998 15.500 18.956 12.586 C 19.992 9.437 19.576 7.954 17.691 8.079 C 16.791 8.139 16.796 8.278 17.711 8.649 "/></g>
<g fill="#4C677BFF">
<path d="M 18.388 19.361 C 18.868 20.768 18.641 21.076 17.459 20.623 C 16.561 20.278 16.156 20.443 16.507 21.011 C 16.843 21.555 18.017 22.000 19.116 22.000 C 21.018 22.000 21.034 21.893 19.434 19.750 C 18.139 18.016 17.899 17.927 18.388 19.361 "/></g>
<g fill="#AAB3BAFF">
<path d="M 19.503 30.055 C 19.711 32.447 20.012 32.984 20.485 31.811 C 20.860 30.882 20.725 29.331 20.185 28.365 C 19.418 26.995 19.268 27.367 19.503 30.055 "/></g>
<g fill="#E9B196FF">
<path d="M 30.441 12.532 C 31.509 13.339 32.832 14.000 33.382 14.000 C 33.932 14.000 33.509 13.339 32.441 12.532 C 31.374 11.724 30.050 11.064 29.500 11.064 C 28.950 11.064 29.374 11.724 30.441 12.532 "/></g>
<g fill="#AAB3BAFF">
<path d="M 19.900 20.370 C 20.670 21.303 21.794 21.902 22.397 21.701 C 23.001 21.500 22.371 20.736 20.997 20.004 C 18.693 18.776 18.608 18.804 19.900 20.370 "/></g>
<g fill="#E9B196FF">
<path d="M 28.500 14.477 C 30.234 15.703 30.391 15.699 29.685 14.446 C 29.236 13.651 28.336 13.014 27.685 13.032 C 27.033 13.049 27.400 13.700 28.500 14.477 "/></g>
<g fill="#AAB3BAFF">
<path d="M 11.000 39.000 C 11.000 39.550 11.450 40.000 12.000 40.000 C 12.550 40.000 13.000 39.550 13.000 39.000 C 13.000 38.450 12.550 38.000 12.000 38.000 C 11.450 38.000 11.000 38.450 11.000 39.000 "/></g>
<g fill="#AAB3BAFF">
<path d="M 35.000 33.017 C 33.735 33.820 33.788 33.972 35.333 33.985 C 36.342 33.993 37.017 33.564 36.833 33.032 C 36.621 32.416 35.955 32.410 35.000 33.017 "/></g>
<g fill="#F57F4CFF">
<path d="M 30.378 20.378 L 29.500 21.256 30.378 20.378 L 31.256 19.500 30.378 20.378 "/></g>
<g fill="#F57F4CFF">
<path d="M 33.387 15.157 C 34.776 15.963 35.090 15.955 34.578 15.126 C 34.195 14.507 33.346 14.014 32.691 14.030 C 32.036 14.047 32.349 14.554 33.387 15.157 "/></g>
</svg>
